<svg width="20" height="20" viewBox="0 0 20 20" fill="none" xmlns="http://www.w3.org/2000/svg">
    <rect width="20" height="20" rx="4" fill="#06BB79"/>
    <path fill-rule="evenodd" clip-rule="evenodd"
          d="M14.7709 6.23151C14.6373 6.08334 14.4555 6 14.2657 6C14.076 6 13.8941 6.08334 13.7605 6.23151L8.4595 12.0701L6.23236 9.61259C6.04552 9.41406 5.77657 9.34025 5.52684 9.41897C5.27711 9.49769 5.08453 9.71698 5.02164 9.99423C4.95876 10.2715 5.03512 10.5646 5.22196 10.7631L7.95431 13.7685C8.08791 13.9167 8.26978 14 8.4595 14C8.64923 14 8.8311 13.9167 8.9647 13.7685L14.7709 7.38201C14.9169 7.23384 15 7.02528 15 6.80676C15 6.58824 14.9169 6.37968 14.7709 6.23151Z"
          fill="white"/>
</svg>
